<?xml version="1.0" encoding="UTF-8"?>
<svg width="700pt" height="700pt" version="1.1" viewBox="0 0 700 700" xmlns="http://www.w3.org/2000/svg">
 <g>
  <path d="m533.3 426.86c33.332-41.707 51.555-93.473 51.699-146.86-0.57031-61.953-25.363-121.23-69.074-165.13-43.715-43.906-102.88-68.965-164.82-69.809-47.91 0.050781-94.676 14.613-134.14 41.77-39.469 27.152-69.785 65.629-86.957 110.35-17.969 47.719-19.93 99.984-5.582 148.91 14.348 48.93 44.223 91.863 85.113 122.32 40.891 30.461 90.582 46.789 141.57 46.527 35.004-0.23828 69.516-8.2656 101.03-23.5 31.516-15.234 59.242-37.297 81.172-64.582zm-183.3 47.562c-51.879-0.53516-101.44-21.574-137.86-58.527-36.422-36.949-56.738-86.812-56.52-138.7 1.2383-51.09 22.352-99.684 58.855-135.45 36.504-35.766 85.52-55.887 136.62-56.086v91.539c36.379 0.50781 69.785 20.211 87.828 51.805 18.047 31.594 18.047 70.375 0 101.97-18.043 31.594-51.449 51.297-87.828 51.805v91.559z"/>
  <path d="m247.1 280c0.24219 27.398 11.316 53.586 30.801 72.848 19.484 19.258 45.801 30.027 73.199 29.953v-205.6c-27.398-0.074219-53.715 10.695-73.199 29.953-19.484 19.262-30.559 45.449-30.801 72.848z"/>
 </g>
</svg>
